inDegrees=no
num_controls=7
num_derivatives=13
num_iterations=198
num_multipliers=7
num_parameters=0
num_slacks=7
num_states=26
objective=0.509540
objective_accelerations=0.041273
objective_balance=0.003545
objective_effort=0.029685
objective_height=0.322540
objective_ligament=0.112498
solver_duration=2537.379829
status=Solve_Succeeded
success=true
DataType=double
version=3
OpenSimVersion=4.5
endheader
time	/jointset/ground_pelvis/pelvis_tilt/value	/jointset/ground_pelvis/pelvis_tx/value	/jointset/ground_pelvis/pelvis_ty/value	/jointset/hip_l/hip_flexion_l/value	/jointset/hip_l/hip_adduction_l/value	/jointset/hip_l/hip_rotation_l/value	/jointset/back/lumbar_extension/value	/jointset/patellofemoral_l/patellar_flexion_l/value	/jointset/knee_l/knee_flexion_l/value	/jointset/knee_l/knee_adduction_l/value	/jointset/knee_l/knee_rotation_l/value	/jointset/ankle_l/ankle_angle_l/value	/jointset/subtalar_l/subtalar_angle_l/value	/jointset/ground_pelvis/pelvis_tilt/speed	/jointset/ground_pelvis/pelvis_tx/speed	/jointset/ground_pelvis/pelvis_ty/speed	/jointset/hip_l/hip_flexion_l/speed	/jointset/hip_l/hip_adduction_l/speed	/jointset/hip_l/hip_rotation_l/speed	/jointset/back/lumbar_extension/speed	/jointset/patellofemoral_l/patellar_flexion_l/speed	/jointset/knee_l/knee_flexion_l/speed	/jointset/knee_l/knee_adduction_l/speed	/jointset/knee_l/knee_rotation_l/speed	/jointset/ankle_l/ankle_angle_l/speed	/jointset/subtalar_l/subtalar_angle_l/speed	/forceset/tau_hip_flexion_l	/forceset/tau_hip_adduction_l	/forceset/tau_hip_rotation_l	/forceset/tau_knee_flexion_l	/forceset/tau_ankle_angle_l	/forceset/tau_subtalar_angle_l	/forceset/tau_lumbar_extension	lambda_cid13_p0	lambda_cid13_p1	lambda_cid13_p2	lambda_cid13_p3	lambda_cid13_p4	lambda_cid13_p5	lambda_cid14_p0	/jointset/ground_pelvis/pelvis_tilt/accel	/jointset/ground_pelvis/pelvis_tx/accel	/jointset/ground_pelvis/pelvis_ty/accel	/jointset/hip_l/hip_flexion_l/accel	/jointset/hip_l/hip_adduction_l/accel	/jointset/hip_l/hip_rotation_l/accel	/jointset/back/lumbar_extension/accel	/jointset/patellofemoral_l/patellar_flexion_l/accel	/jointset/knee_l/knee_flexion_l/accel	/jointset/knee_l/knee_adduction_l/accel	/jointset/knee_l/knee_rotation_l/accel	/jointset/ankle_l/ankle_angle_l/accel	/jointset/subtalar_l/subtalar_angle_l/accel	gamma_cid13_p0	gamma_cid13_p1	gamma_cid13_p2	gamma_cid13_p3	gamma_cid13_p4	gamma_cid13_p5	gamma_cid14_p0
0.5	-0.1136009575728715	-0.05076128996973534	0.827048241972863	0.8793889870226242	-0.3114724247474154	-0.137111136912223	-0.7805174507421759	0.7899665409811016	0.789966540980825	-0.07679838801401775	-0.17189836859133	0.08423044949723532	0.01127908698923262	-0.2233430548168883	-0.1651586427864218	-0.3509368698750103	1.512138158355576	-0.109829012459976	0.5559036516670233	-0.8649039571208013	1.550387016863672	1.550387016863695	-0.01090963079024741	0.01516452695399068	0.331237382257965	-0.009890447196663392	-0.2803331482211013	0.04795065552142822	-0.007450937579211357	-0.200850459143965	0.1038689141859457	0.03146865194825561	0.3284656222275886	-11.09116416449591	-12.63006260670869	2.593237068427697	-8.851612229554144	-697.0248415163529	-57.36076793110259	-14.77749217011045	0.4039093866926965	0.6671729450792706	-0.2094831292246316	-1.171484242934006	0.4234978786420012	-0.0701905986134895	1.728844774584233	-0.5997295594080925	-0.5997295594081131	-0.07303816462180159	-0.01209410283399448	0.294819732204111	0.5443775231673117	-1.820804191420706e-07	-4.158670980443228e-07	7.422831556897575e-07	2.771094727528001e-08	-1.772499144589642e-07	-8.067196173389281e-08	-1.593193052638324e-07
0.51	-0.1158140819620818	-0.05237948011504191	0.8235292781593596	0.8944488792459456	-0.3125501850123487	-0.1315565363648273	-0.7890789197849553	0.8054366783163003	0.8054366783160466	-0.07691287453286659	-0.1717480554506919	0.08755597900625062	0.01120618775473481	-0.2192733119362848	-0.15847686604294	-0.3527675013957419	1.499581851030177	-0.1057215788184298	0.5548865806722101	-0.8472714437144379	1.543298545742822	1.543298545742864	-0.01199794849375997	0.01486751066881559	0.3337460444097953	-0.00472469077362361	-0.2874083475183409	0.04865377448705899	-0.007473780863447486	-0.2031680965378708	0.1023197530097104	0.0318668823343202	0.335229868797174	-11.85267086573577	-12.62265897874321	2.538347293984384	-8.504624480369895	-701.6090482602948	-57.19758690306002	-14.20044218724104	0.4097646648724735	0.6690640204848894	-0.1566290414668775	-1.336491743845324	0.4045353552815934	-0.1370929623781784	1.798215781718634	-0.814660146132672	-0.8146601461299088	-0.1283160956088592	-0.04294250844947781	0.2105008861549598	0.4973580572182669	-1.797196556565106e-07	-3.703474461361757e-07	7.412446538063804e-07	3.41131527295799e-08	-1.714502037310291e-07	-6.024501510743355e-08	-1.545271020537711e-07
0.52	-0.117986257337258	-0.05393077569661324	0.8199946528550552	0.9093754508427141	-0.31358683709119	-0.1260160320498723	-0.7974605114620595	0.8208256800887489	0.8208256800885174	-0.07703856173323682	-0.1716015998963201	0.09090291742268085	0.01118388275553672	-0.2151532520105557	-0.1517797300393788	-0.3540691680352553	1.485474033044676	-0.1016073752420625	0.5530844051788826	-0.8289284839858266	1.534159904313601	1.534159904313661	-0.01314976709298729	0.01439300970003285	0.3355191637409243	0.0002283998632535936	-0.2944835468155785	0.04935689345269714	-0.00749662414772119	-0.2054857339317744	0.1007705918334781	0.03226511272039453	0.3419941153667593	-12.61388800702149	-12.61674381752718	2.485337887450866	-8.20969068563249	-706.2266355797423	-57.07224600751813	-13.6178516870109	0.4139727957177781	0.6702447970951521	-0.1036901529810085	-1.48178637495441	0.4248518656062459	-0.2272114983163828	1.870934039033783	-1.009763621082307	-1.009763621082321	-0.0857383437647478	-0.04759103955553704	0.1477111680638956	0.5018443659348063	-1.781870616257694e-07	-3.201503137346666e-07	7.426782935681994e-07	4.296246574204232e-08	-1.683950883378125e-07	-3.823541038371465e-08	-1.494572006052847e-07
0.53	-0.120117207351903	-0.05541511426076044	0.8164498084310381	0.9241529933983683	-0.3145824669346301	-0.1204974983489428	-0.8056552396059514	0.8361123399649505	0.8361123399649298	-0.07717645894060744	-0.171460788576638	0.09426351636437424	0.01120973439301715	-0.2110525591324147	-0.1450945550363	-0.3547954449014128	1.469753978785176	-0.09753913658803311	0.5504743012846096	-0.8099096630882543	1.522755974330014	1.522755974330026	-0.01448009064226587	0.01372096866886118	0.3364358602383054	0.004867345869778138	-0.3012914098980086	0.04991053843914306	-0.007512171372347227	-0.2083835992435552	0.09950470685338106	0.03250755607187567	0.3485804708759012	-13.32581241238035	-12.54512601766849	2.414228218920909	-7.76060728836097	-711.2803651408974	-56.92289663370543	-13.0308372712186	0.4057274930122685	0.666677537154829	-0.04148903148452648	-1.659212625725717	0.3946655828128434	-0.3002493719158631	1.933478370729799	-1.268092817661542	-1.268092817668775	-0.1642736145517568	-0.08410262933368581	0.0389199582009941	0.433693078982177	-1.739227352404136e-07	-2.738421744405552e-07	7.364970499853225e-07	4.815147276021438e-08	-1.595729368007923e-07	-1.955946994568904e-08	-1.437001954658048e-07
0.54	-0.1222076284459343	-0.05683279633782878	0.8129008227227491	0.9387649158765736	-0.3155380432480256	-0.1150095335943426	-0.8136565550897451	0.8512724835151827	0.8512724835153728	-0.077329178234287	-0.1713281160661514	0.0976283364845667	0.01127973016275715	-0.2070474678882795	-0.1384484326236091	-0.3548974248896286	1.452350017554555	-0.09359666923354663	0.5469706159130162	-0.7902459519662495	1.508856639119842	1.508856639119805	-0.01611418435323823	0.01276524786026216	0.336363399440718	0.009057226315137831	-0.3080992729804373	0.0504641834255958	-0.007527718597011511	-0.2112814645553342	0.09823882187328689	0.03274999942336589	0.3551668263850427	-14.03870095020988	-12.47474150396256	2.344917633624993	-7.356955733897053	-716.3823430287729	-56.81109334145173	-12.440846924153	0.3948524689165759	0.6624342790176043	0.0211692226073622	-1.81856776917882	0.3996976056976637	-0.4059277937804927	1.999912083920329	-1.508844666399357	-1.50884466639938	-0.1464923761035014	-0.1043269950410155	-0.05012029092975409	0.4120312537018443	-1.666360666754839e-07	-2.318367509248417e-07	7.2189082908491e-07	4.929077952938426e-08	-1.443702346365852e-07	-4.571838930132667e-09	-1.371829904979919e-07
0.55	-0.1242584686772098	-0.05818426635229951	0.8093539474064581	0.9531946234955647	-0.3164548008737506	-0.10956085607278	-0.8214581364805613	0.866281547589053	0.8662815475890642	-0.07749957138063873	-0.1712062499512699	0.1009877003547061	0.0113894705607423	-0.2031333965696324	-0.1318572730188757	-0.3543714440454182	1.433324663526762	-0.08977967615892377	0.5426274213361088	-0.7699786027151924	1.492569189261044	1.492569189261038	-0.01800561634897666	0.01156541567145073	0.3353601133323654	0.01281633514380714	-0.3147472112669195	0.05091722766760272	-0.007522008986180002	-0.2141590060119848	0.09682036406666618	0.032930455323396	0.3615556209837614	-14.79957275023656	-12.36865089055635	2.269475639003218	-6.856130428269326	-721.3918874155028	-56.66110026106357	-11.84950962129936	0.3877434464435242	0.6557113714414112	0.08421444823807339	-1.98456736705422	0.3689065585826644	-0.469254650091548	2.053904867936583	-1.746716378998015	-1.746716378993468	-0.2166643418305326	-0.134051270352462	-0.1478328243215423	0.3466234550589951	-1.556686327421046e-07	-1.9105914637916e-07	6.928976053108306e-07	4.749182071416867e-08	-1.253798864994753e-07	8.484320833150436e-09	-1.286099525679218e-07
0.5600000000000001	-0.1262705563986757	-0.05947017385667493	0.8058155122851913	0.9674260679447843	-0.3173341472886799	-0.1041597583690753	-0.829054292674419	0.881116132917661	0.8811161329174906	-0.07769011799306026	-0.1710976301461837	0.1043325513530553	0.01153455659853619	-0.1992969659268009	-0.1253359306045468	-0.353209385884802	1.412697383599974	-0.08611442707478326	0.5374546523413788	-0.7491609125746094	1.473960890067123	1.473960890067147	-0.02014487756557619	0.01011598590058983	0.3334608250826716	0.01612635427685653	-0.3213951495534005	0.05137027190961595	-0.007516299375389589	-0.2170365474686335	0.09540190626004828	0.03311091122343471	0.3679444155824798	-15.56329878328782	-12.26360824128184	2.195969483745928	-6.390554032058203	-726.4714851889083	-56.54907434385388	-11.25855345010963	0.379324333753418	0.648470840936709	0.1483846858885063	-2.138952948978078	0.3693488076011844	-0.5718426773449663	2.109980261825488	-1.973014533424144	-1.973014533424173	-0.1960582202757217	-0.154246511450918	-0.2293207191979599	0.3222133145778678	-1.402842803665857e-07	-1.517549245975168e-07	6.466399780883515e-07	4.216694319769062e-08	-1.018443631948824e-07	1.922271509370568e-08	-1.175699150831436e-07
0.5700000000000001	-0.1282445717742614	-0.06069125771887761	0.8022917782210548	0.9814437711110613	-0.3181774528358751	-0.09881427192758359	-0.8364397060412136	0.8957539937256045	0.8957539937255663	-0.07790275986948916	-0.171004500316853	0.1076544259441014	0.01171082587436028	-0.1955047924922062	-0.1188961062368565	-0.3514399279184832	1.390615159973617	-0.08256601279557572	0.5315290611081911	-0.7278538805822963	1.453307921197659	1.453307921197674	-0.0223922755444194	0.008485076156766205	0.3308067956397464	0.01907318567439282	-0.3277243640595892	0.05173128852939456	-0.007485763123806373	-0.2196597281280784	0.09377530713733627	0.03322125100324239	0.3739278030191912	-16.36245415209923	-12.12278519682293	2.117756982379357	-5.8875080144009	-731.014025609146	-56.35899790948	-10.66978081053212	0.3793451427201465	0.6394564055694599	0.2058334993460238	-2.277089107264247	0.3446192141767342	-0.6200496735031773	2.151246698212538	-2.15691834733126	-2.156918347332498	-0.2404072630653841	-0.1711241665685027	-0.2995454818753934	0.2727192987067051	-1.251676085696035e-07	-1.146210987021839e-07	5.986930097191746e-07	3.75758247274871e-08	-8.120607363783779e-08	2.906062390351525e-08	-1.063764514027108e-07
0.58	-0.1301806291566176	-0.0618483997032266	0.79878866016605	0.995233805633516	-0.3189858679450576	-0.09353146786386281	-0.8436100126820292	0.9101762287881304	0.9101762287882205	-0.0781381410609894	-0.1709284017771016	0.1109465399557113	0.01191492371343293	-0.1917053672813111	-0.1125475550338089	-0.3490861840584679	1.367163654835269	-0.07913633947252498	0.5249181767871073	-0.706139567378853	1.430835740983249	1.430835740983257	-0.02469274057833365	0.00670972798412661	0.3275087091953978	0.02169206692653615	-0.3340535785657772	0.05209230514917882	-0.007455226872266307	-0.2222829087875217	0.09214870801462684	0.03333159078305794	0.379911190455902	-17.16646056343305	-11.9827025064833	2.041479100473701	-5.409164586653782	-735.6502404770138	-56.20562344718054	-10.08517847293145	0.3807746890134598	0.6302162080081561	0.26524186462782	-2.412809251376105	0.345600616369824	-0.7089012949242367	2.191436504051503	-2.336856802413118	-2.336856802413117	-0.2066716312899325	-0.1831341972141182	-0.3581321194825839	0.2566232854992807	-1.103995440376926e-07	-8.03138348913485e-08	5.485459691589501e-07	3.394029943382715e-08	-6.434092570550748e-08	3.772580747514436e-08	-9.498317686282127e-08
